<svg fill="none" height="24" viewBox="0 0 24 24" width="24" xmlns="http://www.w3.org/2000/svg"><g fill="#fff"><path d="m21.4274 2.5783c-.5-.511-1.24-.7-1.93-.5l-16.08998 4.649c-.728.202-1.244.779-1.383 1.511-.142.746.354 1.694 1.002 2.09l5.031 3.072c.516.316 1.182.237 1.609-.191l5.76098-5.761c.29-.301.77-.301 1.06 0 .29.289.29.76 0 1.06l-5.771 5.761c-.428.428-.508 1.092-.193 1.609l3.074 5.05c.36.599.98.94 1.66.94.08 0 .17 0 .25-.011.78-.099 1.4-.63 1.63-1.38l4.77-15.969c.21-.68.02-1.42-.48-1.93z"/><path clip-rule="evenodd" d="m3.01052 16.8078c-.192 0-.384-.073-.53-.22-.293-.293-.293-.767 0-1.06l1.365-1.366c.293-.292.768-.292 1.061 0 .292.293.292.768 0 1.061l-1.366 1.365c-.146.147-.338.22-.53.22zm3.7612 1.1924c-.192 0-.384-.073-.53-.22-.293-.293-.293-.767 0-1.06l1.365-1.366c.293-.292.768-.292 1.061 0 .292.293.292.768 0 1.061l-1.366 1.365c-.146.147-.338.22-.53.22zm.2537 3.568c.146.147.338.22.53.22s.384-.073.53-.22l1.366-1.365c.292-.293.292-.768 0-1.061-.293-.292-.768-.292-1.061 0l-1.365 1.366c-.293.293-.293.767 0 1.06z" fill-rule="evenodd" opacity=".4"/></g></svg>