<svg fill="none" height="24" viewBox="0 0 24 24" width="24" xmlns="http://www.w3.org/2000/svg"><g fill="#fff"><path d="m21.9999 14.7024v1.3835c0 .2296-.01.4612-.0301.6908-.2805 3.159-2.4749 5.2233-5.6412 5.2233h-8.65735c-1.60321 0-2.95591-.5203-3.92786-1.4637-.38076-.3499-.7014-.761-.9519-1.2322.33066-.402.7014-.8421 1.06212-1.2833.61123-.7318 1.20241-1.4547 1.57315-1.9249.5511-.6817 2.00401-2.4763 4.01804-1.6342.41082.1705.7715.4111 1.1022.6216.8116.5414 1.1523.7018 1.7234.391.6313-.3408 1.0421-1.0126 1.473-1.7144.2305-.3719.4609-.7318.7114-1.0627 1.0922-1.4236 2.7756-1.8046 4.1784-.9624.7014.421 1.3026.9524 1.8637 1.4928.1202.1203.2405.2316.3507.3419.1503.1503.6513.6516 1.1523 1.1329z"/><path d="m16.3387 2h-8.66736c-3.39679 0-5.67134 2.37607-5.67134 5.91411v8.17189c0 1.2321.28056 2.3259.79158 3.2182.33066-.402.70141-.8421 1.06213-1.2843.61122-.7308 1.2024-1.4537 1.57314-1.9239.55111-.6817 2.00401-2.4763 4.01804-1.6342.41082.1705.77151.4111 1.10221.6216.8116.5414 1.1523.7018 1.7234.39.6313-.3398 1.0421-1.0116 1.473-1.7144.2304-.3709.4609-.7308.7114-1.0617 1.0922-1.4236 2.7756-1.8046 4.1784-.9624.7014.421 1.3026.9524 1.8637 1.4928.1202.1203.2405.2316.3507.3419.1503.1493.6513.6506 1.1523 1.1329v-6.78839c0-3.53804-2.2745-5.91411-5.6613-5.91411z" opacity=".4"/><path d="m11.4544 8.79667c0 1.40863-1.1733 2.58163-2.58115 2.58163-1.40681 0-2.58016-1.173-2.58016-2.58163 0-1.4076 1.17335-2.5816 2.58016-2.5816 1.40785 0 2.58115 1.174 2.58115 2.5816z"/></g></svg>