<svg width="187" height="32" viewBox="0 0 187 32" fill="none" xmlns="http://www.w3.org/2000/svg">
<path d="M27.3839 16C27.3839 19.1437 26.1102 21.9897 24.0499 24.0499C21.9896 26.1102 19.1436 27.384 16 27.384C12.8564 27.384 10.0104 26.1102 7.95012 24.0499C5.88987 21.9896 4.61606 19.1437 4.61606 16C4.61606 12.8564 5.88981 10.0104 7.95012 7.95015C10.0104 5.8899 12.8564 4.61609 16 4.61609C19.1436 4.61609 21.9896 5.88984 24.0499 7.95015C26.1101 10.0105 27.3839 12.8564 27.3839 16V16Z" fill="#ECECEC"/>
<path d="M7.1075 16L3.99837 14.3964L0.46875 16C0.46875 20.2887 2.2075 24.1712 5.0175 26.9825L8.89156 25.9304L9.71187 22.2881C8.1025 20.6787 7.1075 18.4556 7.1075 16V16Z" fill="#736ACB"/>
<path d="M16 0.46875C11.7112 0.46875 7.82874 2.2075 5.01749 5.0175L5.92067 9.02262L9.71186 9.71187C11.3212 8.1025 13.5444 7.1075 16 7.1075L18.0663 3.99837L16 0.46875Z" fill="#5BD6FD"/>
<path d="M26.9825 5.01749L23.5712 5.4838L22.2881 9.71186C23.8975 11.3212 24.8925 13.5444 24.8925 16L28.2119 17.7168L31.5312 16C31.5312 11.7112 29.7925 7.82874 26.9825 5.01749Z" fill="#FBC072"/>
<path d="M25.843 22.8721L22.2881 22.2881C20.6787 23.8975 18.4556 24.8925 16 24.8925L14.0032 27.7653L16 31.5312C20.2887 31.5312 24.1712 29.7925 26.9825 26.9825L25.843 22.8721Z" fill="#FF71A7"/>
<path d="M11.6066 22.2684C10.0023 20.6641 9.01044 18.4479 9.01044 16.0001C9.01044 13.5522 10.0023 11.336 11.6066 9.73169C13.0034 8.33494 14.864 7.40275 16.9374 7.18481C16.6293 7.15244 16.3166 7.1355 15.9999 7.1355C13.5521 7.1355 11.3359 8.12737 9.73163 9.73169C8.12731 11.336 7.13544 13.5521 7.13544 16.0001C7.13544 18.4479 8.12731 20.6641 9.73163 22.2684C11.3359 23.8727 13.5521 24.8646 15.9999 24.8646C16.3166 24.8646 16.6293 24.8476 16.9374 24.8153C14.864 24.5973 13.0034 23.6651 11.6066 22.2684V22.2684Z" fill="#DEDEDC"/>
<path d="M16 24.8925V31.5312C11.7112 31.5312 7.82874 29.7925 5.01749 26.9825L9.71186 22.2881C11.3212 23.8975 13.5444 24.8925 16 24.8925V24.8925Z" fill="#918BD7"/>
<path d="M31.5312 16C31.5312 20.2888 29.7925 24.1713 26.9825 26.9825L22.2881 22.2881C23.8975 20.6787 24.8925 18.4556 24.8925 16H31.5312Z" fill="#FF97C0"/>
<path d="M26.9825 5.0175L22.2881 9.71187C20.6787 8.1025 18.4556 7.1075 16 7.1075V0.46875C20.2888 0.46875 24.1713 2.2075 26.9825 5.0175V5.0175Z" fill="#F9F097"/>
<path d="M9.71187 9.71186C8.1025 11.3212 7.1075 13.5444 7.1075 16H0.46875C0.46875 11.7112 2.2075 7.82874 5.0175 5.01749L9.71187 9.71186Z" fill="#A4E6FF"/>
<path d="M27.314 4.686L27.3139 4.68594C24.2908 1.66419 20.2727 0 16 0C14.2469 0 12.5232 0.282 10.8769 0.838188C10.6316 0.921063 10.4999 1.18706 10.5828 1.43231C10.6657 1.67756 10.9316 1.80925 11.1769 1.72637C12.5796 1.25256 14.0421 0.990187 15.5312 0.944687V6.65025C13.4089 6.75437 11.3581 7.572 9.72 9.05713L5.68563 5.02269C6.82125 3.95519 8.10675 3.07494 9.51256 2.40294C9.74613 2.29131 9.845 2.01144 9.73331 1.77787C9.62169 1.54431 9.34187 1.44537 9.10825 1.55712C7.46537 2.34237 5.97762 3.39512 4.68612 4.686L4.68606 4.68606L4.686 4.68612C1.66419 7.70925 0 11.7273 0 16C0 20.2727 1.66419 24.2908 4.686 27.3139L4.68606 27.3139L4.68612 27.314C7.70925 30.3358 11.7273 32 16 32C17.867 32 19.6973 31.6806 21.4399 31.0505C21.6834 30.9625 21.8094 30.6937 21.7214 30.4503C21.6333 30.2068 21.3646 30.0808 21.1212 30.1689C19.6271 30.7091 18.0642 31.0066 16.4688 31.0554V25.3498C18.6472 25.2429 20.6834 24.3904 22.28 22.9429L26.3144 26.9773C25.2571 27.9709 24.0669 28.8041 22.7706 29.4576C22.5394 29.5742 22.4464 29.8561 22.563 30.0872C22.6796 30.3184 22.9614 30.4113 23.1926 30.2948C24.7176 29.5259 26.1042 28.5231 27.3139 27.3141L27.3139 27.314L27.314 27.3139C30.3358 24.2908 32 20.2727 32 16C32 11.7273 30.3358 7.70925 27.3141 4.68612C27.314 4.68606 27.314 4.68606 27.314 4.686V4.686ZM21.9567 21.9567C20.3658 23.5476 18.2503 24.4237 16 24.4237C13.7497 24.4237 11.6342 23.5476 10.0433 21.9567C8.45237 20.3658 7.57625 18.2503 7.57625 16C7.57625 13.7497 8.45244 11.6342 10.0433 10.0433C11.6342 8.45237 13.7497 7.57625 16 7.57625C18.2503 7.57625 20.3658 8.45244 21.9567 10.0433C23.5476 11.6342 24.4238 13.7497 24.4238 16C24.4238 18.2503 23.5476 20.3658 21.9567 21.9567ZM22.28 9.05706C20.6716 7.59881 18.6329 6.75637 16.4688 6.65019V0.944562C20.1597 1.05669 23.6238 2.49144 26.3145 5.02256L22.28 9.05706ZM5.02262 5.6855L9.05706 9.72C7.62675 11.2976 6.75831 13.3269 6.65019 15.5312H0.944562C1.05675 11.8403 2.49156 8.37625 5.02262 5.6855V5.6855ZM6.65019 16.4688C6.75325 18.5695 7.55787 20.6265 9.05706 22.28L7.08012 24.2569L5.02262 26.3145C2.49156 23.6238 1.05675 20.1597 0.944625 16.4688H6.65019ZM9.72 22.9429C11.2833 24.3603 13.3044 25.2406 15.5312 25.3498V31.0554C11.8403 30.9433 8.37625 29.5086 5.6855 26.9774L9.72 22.9429ZM26.9774 26.3145L22.9429 22.28C24.3954 20.678 25.2436 18.6392 25.3498 16.4688H31.0554C30.9432 20.1597 29.5085 23.6238 26.9774 26.3145V26.3145ZM25.3498 15.5312C25.2439 13.3677 24.4003 11.3273 22.9429 9.72L26.9774 5.6855C29.5085 8.37625 30.9433 11.8404 31.0554 15.5312H25.3498Z" fill="black"/>
<path d="M11.5126 13.4076C10.7006 13.4076 10.0399 14.0682 10.0399 14.8803C10.0399 15.1391 10.2498 15.349 10.5086 15.349C10.7675 15.349 10.9774 15.1391 10.9774 14.8803C10.9774 14.5851 11.2175 14.3451 11.5126 14.3451C11.8078 14.3451 12.0478 14.5852 12.0478 14.8803C12.0478 15.1391 12.2577 15.349 12.5166 15.349C12.7754 15.349 12.9853 15.1391 12.9853 14.8803C12.9853 14.0682 12.3247 13.4076 11.5126 13.4076Z" fill="black"/>
<path d="M20.4871 13.4076C19.6751 13.4076 19.0144 14.0682 19.0144 14.8803C19.0144 15.1391 19.2243 15.349 19.4832 15.349C19.7421 15.349 19.9519 15.1391 19.9519 14.8803C19.9519 14.5851 20.1921 14.3451 20.4871 14.3451C20.7822 14.3451 21.0224 14.5852 21.0224 14.8803C21.0224 15.1391 21.2322 15.349 21.4911 15.349C21.75 15.349 21.9599 15.1391 21.9599 14.8803C21.9599 14.0682 21.2992 13.4076 20.4871 13.4076Z" fill="black"/>
<path d="M17.3728 15.7004C17.1777 15.5302 16.8816 15.5506 16.7115 15.7457C16.5318 15.9519 16.2724 16.0701 15.9998 16.0701C15.7273 16.0701 15.4679 15.9519 15.2883 15.7457C15.1181 15.5506 14.8221 15.5303 14.6269 15.7003C14.4317 15.8704 14.4114 16.1665 14.5815 16.3617C14.9392 16.7722 15.4562 17.0076 15.9998 17.0076C16.5434 17.0076 17.0604 16.7722 17.4181 16.3617C17.5883 16.1666 17.568 15.8704 17.3728 15.7004V15.7004Z" fill="black"/>
<path d="M59.24 24.288C57.544 24.288 56.088 23.928 54.872 23.208C53.656 22.472 52.72 21.456 52.064 20.16C51.408 18.848 51.08 17.336 51.08 15.624C51.08 13.912 51.408 12.4 52.064 11.088C52.72 9.776 53.656 8.752 54.872 8.016C56.088 7.28 57.544 6.912 59.24 6.912C61.256 6.912 62.904 7.416 64.184 8.424C65.48 9.416 66.288 10.816 66.608 12.624H63.224C63.016 11.712 62.568 11 61.88 10.488C61.208 9.96 60.312 9.696 59.192 9.696C57.64 9.696 56.424 10.224 55.544 11.28C54.664 12.336 54.224 13.784 54.224 15.624C54.224 17.464 54.664 18.912 55.544 19.968C56.424 21.008 57.64 21.528 59.192 21.528C60.312 21.528 61.208 21.288 61.88 20.808C62.568 20.312 63.016 19.632 63.224 18.768H66.608C66.288 20.496 65.48 21.848 64.184 22.824C62.904 23.8 61.256 24.288 59.24 24.288ZM74.9673 24.288C73.8153 24.288 72.7753 24.024 71.8473 23.496C70.9353 22.968 70.2073 22.24 69.6633 21.312C69.1353 20.368 68.8713 19.28 68.8713 18.048C68.8713 16.816 69.1433 15.736 69.6873 14.808C70.2313 13.864 70.9593 13.128 71.8713 12.6C72.7993 12.072 73.8393 11.808 74.9913 11.808C76.1273 11.808 77.1513 12.072 78.0633 12.6C78.9913 13.128 79.7193 13.864 80.2473 14.808C80.7913 15.736 81.0633 16.816 81.0633 18.048C81.0633 19.28 80.7913 20.368 80.2473 21.312C79.7193 22.24 78.9913 22.968 78.0633 23.496C77.1353 24.024 76.1033 24.288 74.9673 24.288ZM74.9673 21.624C75.7673 21.624 76.4633 21.328 77.0553 20.736C77.6473 20.128 77.9433 19.232 77.9433 18.048C77.9433 16.864 77.6473 15.976 77.0553 15.384C76.4633 14.776 75.7753 14.472 74.9913 14.472C74.1753 14.472 73.4713 14.776 72.8793 15.384C72.3033 15.976 72.0153 16.864 72.0153 18.048C72.0153 19.232 72.3033 20.128 72.8793 20.736C73.4713 21.328 74.1673 21.624 74.9673 21.624ZM83.81 24V6.72H86.882V24H83.81ZM95.7329 24.288C94.5809 24.288 93.5409 24.024 92.6129 23.496C91.7009 22.968 90.9729 22.24 90.4289 21.312C89.9009 20.368 89.6369 19.28 89.6369 18.048C89.6369 16.816 89.9089 15.736 90.4529 14.808C90.9969 13.864 91.7249 13.128 92.6369 12.6C93.5649 12.072 94.6049 11.808 95.7569 11.808C96.8929 11.808 97.9169 12.072 98.8289 12.6C99.7569 13.128 100.485 13.864 101.013 14.808C101.557 15.736 101.829 16.816 101.829 18.048C101.829 19.28 101.557 20.368 101.013 21.312C100.485 22.24 99.7569 22.968 98.8289 23.496C97.9009 24.024 96.8689 24.288 95.7329 24.288ZM95.7329 21.624C96.5329 21.624 97.2289 21.328 97.8209 20.736C98.4129 20.128 98.7089 19.232 98.7089 18.048C98.7089 16.864 98.4129 15.976 97.8209 15.384C97.2289 14.776 96.5409 14.472 95.7569 14.472C94.9409 14.472 94.2369 14.776 93.6449 15.384C93.0689 15.976 92.7809 16.864 92.7809 18.048C92.7809 19.232 93.0689 20.128 93.6449 20.736C94.2369 21.328 94.9329 21.624 95.7329 21.624ZM104.576 24V12.096H107.312L107.6 14.328C108.032 13.56 108.616 12.952 109.352 12.504C110.104 12.04 110.984 11.808 111.992 11.808V15.048H111.128C110.456 15.048 109.856 15.152 109.328 15.36C108.8 15.568 108.384 15.928 108.08 16.44C107.792 16.952 107.648 17.664 107.648 18.576V24H104.576ZM115.747 10.248C115.187 10.248 114.723 10.08 114.355 9.744C114.003 9.408 113.827 8.984 113.827 8.472C113.827 7.96 114.003 7.544 114.355 7.224C114.723 6.888 115.187 6.72 115.747 6.72C116.307 6.72 116.763 6.888 117.115 7.224C117.483 7.544 117.667 7.96 117.667 8.472C117.667 8.984 117.483 9.408 117.115 9.744C116.763 10.08 116.307 10.248 115.747 10.248ZM114.211 24V12.096H117.283V24H114.211ZM121.042 24V14.664H119.41V12.096H121.042V10.704C121.042 9.264 121.402 8.24 122.122 7.632C122.858 7.024 123.85 6.72 125.098 6.72H126.418V9.336H125.578C125.05 9.336 124.674 9.44 124.45 9.648C124.226 9.856 124.114 10.208 124.114 10.704V12.096H126.682V14.664H124.114V24H121.042ZM130.603 29.28L133.363 23.208H132.643L128.011 12.096H131.347L134.683 20.472L138.163 12.096H141.427L133.867 29.28H130.603ZM149.226 24V7.2H155.97C157.714 7.2 159.042 7.608 159.954 8.424C160.882 9.224 161.346 10.256 161.346 11.52C161.346 12.576 161.058 13.424 160.482 14.064C159.922 14.688 159.234 15.112 158.418 15.336C159.378 15.528 160.17 16.008 160.794 16.776C161.418 17.528 161.73 18.408 161.73 19.416C161.73 20.744 161.25 21.84 160.29 22.704C159.33 23.568 157.97 24 156.21 24H149.226ZM152.298 14.256H155.514C156.378 14.256 157.042 14.056 157.506 13.656C157.97 13.256 158.202 12.688 158.202 11.952C158.202 11.248 157.97 10.696 157.506 10.296C157.058 9.88 156.378 9.672 155.466 9.672H152.298V14.256ZM152.298 21.504H155.73C156.642 21.504 157.346 21.296 157.842 20.88C158.354 20.448 158.61 19.848 158.61 19.08C158.61 18.296 158.346 17.68 157.818 17.232C157.29 16.784 156.578 16.56 155.682 16.56H152.298V21.504ZM170.006 24.288C168.854 24.288 167.814 24.024 166.886 23.496C165.974 22.968 165.246 22.24 164.702 21.312C164.174 20.368 163.91 19.28 163.91 18.048C163.91 16.816 164.182 15.736 164.726 14.808C165.27 13.864 165.998 13.128 166.91 12.6C167.838 12.072 168.878 11.808 170.03 11.808C171.166 11.808 172.19 12.072 173.102 12.6C174.03 13.128 174.758 13.864 175.286 14.808C175.83 15.736 176.102 16.816 176.102 18.048C176.102 19.28 175.83 20.368 175.286 21.312C174.758 22.24 174.03 22.968 173.102 23.496C172.174 24.024 171.142 24.288 170.006 24.288ZM170.006 21.624C170.806 21.624 171.502 21.328 172.094 20.736C172.686 20.128 172.982 19.232 172.982 18.048C172.982 16.864 172.686 15.976 172.094 15.384C171.502 14.776 170.814 14.472 170.03 14.472C169.214 14.472 168.51 14.776 167.918 15.384C167.342 15.976 167.054 16.864 167.054 18.048C167.054 19.232 167.342 20.128 167.918 20.736C168.51 21.328 169.206 21.624 170.006 21.624ZM183.684 24C182.436 24 181.436 23.696 180.684 23.088C179.932 22.48 179.556 21.4 179.556 19.848V14.664H177.516V12.096H179.556L179.916 8.904H182.628V12.096H185.844V14.664H182.628V19.872C182.628 20.448 182.748 20.848 182.988 21.072C183.244 21.28 183.676 21.384 184.284 21.384H185.772V24H183.684Z" fill="#1B3242"/>
</svg>
